{
.appVersion = "3087";
.formatVersion = 3;
DisplayStrings = (
BUYOP,
ABCDEFGHIJKLMNOPQRSTUVW
);
date = "2021-12-18 02:09:22 +0000";
familyName = "26F Sans";
fontMaster = (
{
id = m01;
metricValues = (
{
over = 16;
pos = 700;
},
{
over = 16;
pos = 680;
},
{
over = 16;
pos = 500;
},
{
over = -16;
},
{
over = -16;
pos = -200;
}
);
name = "26F Sans Regular";
userData = {
GSOffsetHorizontal = 40;
GSOffsetKeepCompatible = 1;
GSOffsetMakeStroke = 1;
GSOffsetVertical = 30;
};
}
);
glyphs = (
{
glyphname = A;
kernLeft = A;
kernRight = A;
lastChange = "2022-01-09 01:26:38 +0000";
layers = (
{
layerId = m01;
shapes = (
{
closed = 1;
nodes = (
(623,0,l),
(379,680,l),
(297,680,l),
(530,0,l)
);
},
{
closed = 1;
nodes = (
(123,0,l),
(356,680,l),
(274,680,l),
(30,0,l)
);
},
{
closed = 1;
nodes = (
(492,187,l),
(492,259,l),
(164,259,l),
(164,187,l)
);
}
);
width = 653;
}
);
metricLeft = x;
metricRight = x;
unicode = 65;
},
{
glyphname = B;
kernLeft = H;
kernRight = B;
lastChange = "2022-01-09 01:36:24 +0000";
layers = (
{
layerId = m01;
shapes = (
{
closed = 1;
nodes = (
(326,0,ls),
(475,0,o),
(547,103,o),
(547,194,cs),
(547,286,o),
(474,344,o),
(410,361,c),
(456,377,o),
(511,412,o),
(511,500,cs),
(511,592,o),
(451,680,o),
(300,680,cs),
(50,680,l),
(50,0,l)
);
},
{
closed = 1;
nodes = (
(135,318,l),
(335,318,ls),
(399,318,o),
(466,285,o),
(466,196,cs),
(466,115,o),
(411,72,o),
(328,72,cs),
(135,72,l)
);
},
{
closed = 1;
nodes = (
(135,608,l),
(302,608,ls),
(385,608,o),
(430,566,o),
(430,495,cs),
(430,388,o),
(328,390,o),
(311,390,cs),
(135,390,l)
);
}
);
width = 575;
}
);
metricLeft = N;
unicode = 66;
},
{
glyphname = C;
kernLeft = O;
kernRight = C;
lastChange = "2022-01-09 01:36:40 +0000";
layers = (
{
layerId = m01;
shapes = (
{
closed = 1;
nodes = (
(545,162,l),
(509,103,o),
(458,53,o),
(358,53,cs),
(214,53,o),
(126,160,o),
(126,340,cs),
(126,520,o),
(214,627,o),
(358,627,cs),
(453,627,o),
(522,582,o),
(547,511,c),
(617,541,l),
(576,641,o),
(495,700,o),
(353,700,cs),
(161,700,o),
(37,565,o),
(37,340,cs),
(37,115,o),
(161,-20,o),
(353,-20,cs),
(483,-20,o),
(568,45,o),
(615,132,c)
);
}
);
width = 648;
}
);
metricLeft = o;
unicode = 67;
},
{
glyphname = D;
kernLeft = H;
kernRight = O;
lastChange = "2021-12-23 00:35:11 +0000";
layers = (
{
layerId = m01;
shapes = (
{
closed = 1;
nodes = (
(50,0,l),
(135,0,l),
(135,680,l),
(50,680,l)
);
},
{
closed = 1;
nodes = (
(279,0,l),
(479,0,o),
(591,121,o),
(591,340,cs),
(591,559,o),
(479,680,o),
(280,680,c),
(280,608,l),
(425,607,o),
(501,514,o),
(501,340,cs),
(501,165,o),
(424,72,o),
(279,72,c)
);
},
{
closed = 1;
nodes = (
(124,608,l),
(280,608,l),
(280,680,l),
(124,680,l)
);
},
{
closed = 1;
nodes = (
(124,0,l),
(280,0,l),
(280,72,l),
(124,72,l)
);
}
);
width = 628;
}
);
metricLeft = N;
metricRight = O;
unicode = 68;
},
{
glyphname = E;
kernLeft = H;
kernRight = E;
lastChange = "2021-12-23 05:30:52 +0000";
layers = (
{
layerId = m01;
shapes = (
{
closed = 1;
nodes = (
(50,0,l),
(135,0,l),
(135,680,l),
(50,680,l)
);
},
{
closed = 1;
nodes = (
(503,0,l),
(503,72,l),
(91,72,l),
(91,0,l)
);
},
{
closed = 1;
nodes = (
(503,608,l),
(503,680,l),
(91,680,l),
(91,608,l)
);
},
{
closed = 1;
nodes = (
(443,304,l),
(443,376,l),
(91,376,l),
(91,304,l)
);
}
);
width = 545;
}
);
metricLeft = L;
unicode = 69;
},
{
glyphname = F;
kernLeft = H;
kernRight = F;
lastChange = "2021-12-23 05:30:54 +0000";
layers = (
{
layerId = m01;
shapes = (
{
closed = 1;
nodes = (
(443,294,l),
(443,366,l),
(91,366,l),
(91,294,l)
);
},
{
closed = 1;
nodes = (
(50,0,l),
(135,0,l),
(135,680,l),
(50,680,l)
);
},
{
closed = 1;
nodes = (
(503,608,l),
(503,680,l),
(91,680,l),
(91,608,l)
);
}
);
width = 533;
}
);
metricLeft = E;
unicode = 70;
},
{
glyphname = G;
kernLeft = O;
kernRight = G;
lastChange = "2022-01-06 05:13:00 +0000";
layers = (
{
layerId = m01;
shapes = (
{
closed = 1;
nodes = (
(159,700,o),
(37,565,o),
(37,340,cs),
(37,115,o),
(159,-20,o),
(359,-20,cs),
(559,-20,o),
(652,115,o),
(652,340,cs),
(652,357,l),
(566,357,l),
(566,340,ls),
(566,160,o),
(504,53,o),
(358,53,cs),
(214,53,o),
(127,160,o),
(127,340,cs),
(127,520,o),
(214,627,o),
(358,627,cs),
(467,627,o),
(531,566,o),
(565,500,c),
(634,535,l),
(589,627,o),
(505,700,o),
(359,700,cs)
);
},
{
closed = 1;
nodes = (
(635,285,l),
(635,357,l),
(378,357,l),
(378,285,l)
);
}
);
width = 687;
}
);
metricLeft = o;
unicode = 71;
},
{
glyphname = H;
kernLeft = H;
kernRight = H;
lastChange = "2021-12-23 00:35:00 +0000";
layers = (
{
layerId = m01;
shapes = (
{
closed = 1;
nodes = (
(50,0,l),
(135,0,l),
(135,680,l),
(50,680,l)
);
},
{
closed = 1;
nodes = (
(463,0,l),
(548,0,l),
(548,680,l),
(463,680,l)
);
},
{
closed = 1;
nodes = (
(515,304,l),
(515,376,l),
(91,376,l),
(91,304,l)
);
}
);
width = 600;
}
);
unicode = 72;
},
{
glyphname = I;
kernLeft = H;
kernRight = H;
lastChange = "2021-12-23 00:35:03 +0000";
layers = (
{
layerId = m01;
shapes = (
{
closed = 1;
nodes = (
(50,0,l),
(135,0,l),
(135,680,l),
(50,680,l)
);
}
);
width = 185;
}
);
metricLeft = i;
metricRight = i;
unicode = 73;
},
{
glyphname = J;
kernLeft = J;
kernRight = H;
lastChange = "2022-01-09 01:36:00 +0000";
layers = (
{
layerId = m01;
shapes = (
{
closed = 1;
nodes = (
(383,-20,o),
(474,61,o),
(474,224,c),
(474,680,l),
(389,680,l),
(389,224,l),
(392,105,o),
(334,53,o),
(259,53,cs),
(190,53,o),
(133,97,o),
(133,174,c),
(50,174,l),
(50,49,o),
(145,-20,o),
(259,-20,cs)
);
}
);
width = 524;
}
);
metricLeft = n;
metricRight = n;
unicode = 74;
},
{
glyphname = K;
kernLeft = H;
kernRight = K;
lastChange = "2021-12-23 05:31:08 +0000";
layers = (
{
layerId = m01;
shapes = (
{
closed = 1;
nodes = (
(50,0,l),
(135,0,l),
(135,680,l),
(50,680,l)
);
},
{
closed = 1;
nodes = (
(105,291,l),
(105,184,l),
(533,680,l),
(431,680,l)
);
},
{
closed = 1;
nodes = (
(450,0,l),
(548,0,l),
(247,431,l),
(179,378,l)
);
},
{
closed = 1;
nodes = (
(50,0,l),
(132,0,l),
(132,680,l),
(50,680,l)
);
}
);
width = 568;
}
);
metricLeft = n;
unicode = 75;
},
{
glyphname = L;
kernLeft = H;
kernRight = L;
lastChange = "2021-12-23 05:31:11 +0000";
layers = (
{
layerId = m01;
shapes = (
{
closed = 1;
nodes = (
(50,0,l),
(135,0,l),
(135,680,l),
(50,680,l)
);
},
{
closed = 1;
nodes = (
(503,0,l),
(503,72,l),
(91,72,l),
(91,0,l)
);
}
);
width = 538;
}
);
metricLeft = H;
unicode = 76;
},
{
glyphname = M;
kernLeft = H;
kernRight = H;
lastChange = "2021-12-23 00:35:26 +0000";
layers = (
{
layerId = m01;
shapes = (
{
closed = 1;
nodes = (
(434,0,l),
(680,680,l),
(593,680,l),
(358,0,l)
);
},
{
closed = 1;
nodes = (
(135,0,l),
(135,680,l),
(50,680,l),
(50,0,l)
);
},
{
closed = 1;
nodes = (
(419,0,l),
(184,680,l),
(97,680,l),
(343,0,l)
);
},
{
closed = 1;
nodes = (
(727,0,l),
(727,680,l),
(642,680,l),
(642,0,l)
);
}
);
width = 777;
}
);
metricLeft = n;
metricRight = n;
unicode = 77;
},
{
glyphname = N;
kernLeft = H;
kernRight = H;
lastChange = "2021-12-23 06:27:09 +0000";
layers = (
{
anchors = (
{
name = bottom;
pos = (316,0);
},
{
name = top;
pos = (316,680);
}
);
layerId = m01;
shapes = (
{
closed = 1;
nodes = (
(135,0,l),
(135,680,l),
(50,680,l),
(50,0,l)
);
},
{
closed = 1;
nodes = (
(581,0,l),
(581,680,l),
(496,680,l),
(496,0,l)
);
},
{
closed = 1;
nodes = (
(554,0,l),
(170,680,l),
(77,680,l),
(461,0,l)
);
}
);
width = 631;
}
);
metricLeft = n;
metricRight = n;
unicode = 78;
},
{
glyphname = O;
kernLeft = O;
kernRight = O;
lastChange = "2022-01-03 21:57:07 +0000";
layers = (
{
layerId = m01;
shapes = (
{
closed = 1;
nodes = (
(204,53,o),
(127,160,o),
(127,340,cs),
(127,520,o),
(204,627,o),
(348,627,cs),
(494,627,o),
(571,520,o),
(571,340,cs),
(571,160,o),
(494,53,o),
(348,53,cs)
);
},
{
closed = 1;
nodes = (
(549,-20,o),
(661,115,o),
(661,340,cs),
(661,565,o),
(549,700,o),
(349,700,cs),
(149,700,o),
(37,565,o),
(37,340,cs),
(37,115,o),
(149,-20,o),
(349,-20,cs)
);
}
);
width = 698;
}
);
metricLeft = o;
metricRight = o;
unicode = 79;
},
{
glyphname = P;
kernLeft = H;
kernRight = P;
lastChange = "2022-01-09 00:55:01 +0000";
layers = (
{
layerId = m01;
shapes = (
{
closed = 1;
nodes = (
(50,0,l),
(135,0,l),
(135,680,l),
(50,680,l)
);
},
{
closed = 1;
nodes = (
(466,411,o),
(417,352,o),
(334,352,cs),
(130,352,l),
(130,280,l),
(336,280,ls),
(484,280,o),
(547,389,o),
(547,480,cs),
(547,571,o),
(484,680,o),
(336,680,cs),
(130,680,l),
(130,608,l),
(334,608,ls),
(417,608,o),
(466,549,o),
(466,480,cs)
);
}
);
width = 575;
}
);
metricLeft = B;
unicode = 80;
},
{
glyphname = Q;
kernLeft = O;
kernRight = Q;
lastChange = "2022-01-09 01:38:59 +0000";
layers = (
{
layerId = m01;
shapes = (
{
closed = 1;
nodes = (
(517,-105,l),
(618,-105,l),
(442,152,l),
(341,152,l)
);
},
{
ref = O;
}
);
width = 698;
}
);
metricLeft = o;
metricRight = o;
unicode = 81;
},
{
glyphname = R;
kernLeft = H;
kernRight = R;
lastChange = "2022-01-09 00:55:10 +0000";
layers = (
{
layerId = m01;
shapes = (
{
closed = 1;
nodes = (
(135,0,l),
(135,680,l),
(50,680,l),
(50,0,l)
);
},
{
closed = 1;
nodes = (
(458,0,l),
(553,0,l),
(361,330,l),
(266,330,l)
);
},
{
closed = 1;
nodes = (
(466,411,o),
(417,352,o),
(334,352,cs),
(130,352,l),
(130,280,l),
(336,280,ls),
(484,280,o),
(547,389,o),
(547,480,cs),
(547,571,o),
(484,680,o),
(336,680,cs),
(130,680,l),
(130,608,l),
(334,608,ls),
(417,608,o),
(466,549,o),
(466,480,cs)
);
}
);
width = 583;
}
);
metricLeft = n;
unicode = 82;
},
{
glyphname = S;
kernLeft = S;
kernRight = S;
lastChange = "2022-01-09 01:46:50 +0000";
layers = (
{
layerId = m01;
shapes = (
{
closed = 1;
nodes = (
(37,97,l),
(84,21,o),
(162,-20,o),
(300,-20,cs),
(421,-20,o),
(561,34,o),
(561,177,cs),
(561,425,o),
(137,325,o),
(137,504,cs),
(137,577,o),
(208,627,o),
(303,627,cs),
(382,627,o),
(447,592,o),
(493,543,c),
(545,596,l),
(493,655,o),
(412,700,o),
(304,700,cs),
(172,700,o),
(50,633,o),
(50,500,cs),
(50,251,o),
(477,355,o),
(477,173,cs),
(477,85,o),
(378,54,o),
(303,54,cs),
(185,54,o),
(129,97,o),
(93,153,c)
);
}
);
width = 591;
}
);
metricLeft = s;
metricRight = s;
unicode = 83;
},
{
glyphname = T;
kernLeft = T;
kernRight = T;
lastChange = "2021-12-23 04:50:00 +0000";
layers = (
{
layerId = m01;
shapes = (
{
closed = 1;
nodes = (
(539,608,l),
(539,680,l),
(52,680,l),
(52,608,l)
);
},
{
closed = 1;
nodes = (
(253,0,l),
(338,0,l),
(338,680,l),
(253,680,l)
);
}
);
width = 591;
}
);
unicode = 84;
},
{
glyphname = U;
kernLeft = U;
kernRight = U;
lastChange = "2022-01-09 01:45:45 +0000";
layers = (
{
layerId = m01;
shapes = (
{
closed = 1;
nodes = (
(485,-20,o),
(588,75,o),
(588,254,c),
(588,680,l),
(503,680,l),
(503,254,l),
(503,125,o),
(426,53,o),
(319,53,cs),
(212,53,o),
(139,125,o),
(139,254,c),
(139,680,l),
(50,680,l),
(50,254,l),
(50,71,o),
(159,-20,o),
(319,-20,cs)
);
}
);
width = 638;
}
);
metricLeft = n;
metricRight = n;
unicode = 85;
},
{
glyphname = V;
kernLeft = V;
kernRight = V;
lastChange = "2022-01-09 01:46:09 +0000";
layers = (
{
layerId = m01;
shapes = (
{
closed = 1;
nodes = (
(304,0,l),
(387,0,l),
(631,680,l),
(537,680,l)
);
},
{
closed = 1;
nodes = (
(274,0,l),
(360,0,l),
(123,680,l),
(30,680,l)
);
}
);
width = 661;
}
);
metricLeft = x;
metricRight = x;
unicode = 86;
},
{
glyphname = W;
kernLeft = W;
kernRight = W;
lastChange = "2021-12-23 05:31:55 +0000";
layers = (
{
layerId = m01;
shapes = (
{
closed = 1;
nodes = (
(658,0,l),
(485,680,l),
(404,680,l),
(577,0,l)
);
},
{
closed = 1;
nodes = (
(276,0,l),
(123,680,l),
(30,680,l),
(195,0,l)
);
},
{
closed = 1;
nodes = (
(299,0,l),
(472,680,l),
(395,680,l),
(222,0,l)
);
},
{
closed = 1;
nodes = (
(681,0,l),
(846,680,l),
(757,680,l),
(604,0,l)
);
}
);
width = 876;
}
);
metricLeft = x;
metricRight = x;
unicode = 87;
},
{
glyphname = X;
kernLeft = X;
kernRight = X;
lastChange = "2022-01-09 01:43:23 +0000";
layers = (
{
layerId = m01;
shapes = (
{
closed = 1;
nodes = (
(368,309,l),
(618,680,l),
(521,680,l),
(320,388,l)
);
},
{
closed = 1;
nodes = (
(625,0,l),
(139,680,l),
(37,680,l),
(523,0,l)
);
},
{
closed = 1;
nodes = (
(299,385,l),
(30,0,l),
(127,0,l),
(347,306,l)
);
}
);
width = 658;
}
);
unicode = 88;
},
{
glyphname = Y;
kernLeft = Y;
kernRight = Y;
lastChange = "2021-12-23 05:32:04 +0000";
layers = (
{
layerId = m01;
shapes = (
{
closed = 1;
nodes = (
(259,258,l),
(335,270,l),
(123,680,l),
(30,680,l)
);
},
{
closed = 1;
nodes = (
(261,270,l),
(334,258,l),
(564,680,l),
(474,680,l)
);
},
{
closed = 1;
nodes = (
(254,0,l),
(339,0,l),
(339,292,l),
(254,292,l)
);
}
);
width = 594;
}
);
metricLeft = x;
metricRight = x;
unicode = 89;
},
{
glyphname = Z;
kernRight = Z;
lastChange = "2021-12-23 05:32:06 +0000";
layers = (
{
layerId = m01;
shapes = (
{
closed = 1;
nodes = (
(447,621,l),
(40,59,l),
(134,59,l),
(541,621,l)
);
},
{
closed = 1;
nodes = (
(50,608,l),
(493,608,l),
(541,621,l),
(541,680,l),
(50,680,l)
);
},
{
closed = 1;
nodes = (
(40,43,l),
(40,0,l),
(551,0,l),
(551,72,l),
(78,72,l),
(40,59,l)
);
}
);
width = 591;
}
);
metricLeft = z;
metricRight = z;
unicode = 90;
},
{
glyphname = a;
kernLeft = a;
kernRight = n;
lastChange = "2022-01-09 01:24:08 +0000";
layers = (
{
layerId = m01;
shapes = (
{
closed = 1;
nodes = (
(111,484,o),
(160,510,o),
(241,510,cs),
(366,510,o),
(450,449,o),
(450,348,c),
(450,2,l),
(367,2,l),
(367,295,l),
(367,395,o),
(325,440,o),
(233,440,cs),
(169,440,o),
(140,419,o),
(92,375,c),
(61,433,l)
);
},
{
closed = 1;
nodes = (
(376,237,l),
(228,237,ls),
(161,237,o),
(124,201,o),
(124,145,cs),
(124,94,o),
(154,60,o),
(221,60,cs),
(289,60,o),
(367,95,o),
(367,166,c),
(386,105,l),
(354,49,o),
(300,-10,o),
(207,-10,cs),
(115,-10,o),
(35,49,o),
(35,144,cs),
(35,234,o),
(109,305,o),
(204,304,cs),
(376,303,l)
);
}
);
width = 500;
}
);
metricRight = n;
unicode = 97;
},
{
glyphname = b;
kernLeft = l;
kernRight = o;
lastChange = "2022-01-09 00:15:22 +0000";
layers = (
{
layerId = m01;
shapes = (
{
closed = 1;
nodes = (
(50,700,l),
(132,700,l),
(132,0,l),
(50,0,l)
);
},
{
closed = 1;
nodes = (
(192,440,o),
(132,372,o),
(132,250,cs),
(132,134,o),
(189,60,o),
(281,60,cs),
(371,60,o),
(426,128,o),
(426,250,cs),
(426,366,o),
(374,440,o),
(281,440,cs)
);
},
{
closed = 1;
nodes = (
(420,510,o),
(512,420,o),
(512,252,cs),
(512,88,o),
(424,-10,o),
(299,-10,cs),
(122,-10,o),
(60,184,o),
(60,251,cs),
(60,318,o),
(121,510,o),
(298,510,cs)
);
}
);
width = 549;
}
);
metricLeft = p;
metricRight = p;
unicode = 98;
},
{
glyphname = c;
kernLeft = o;
kernRight = c;
lastChange = "2021-12-23 05:28:30 +0000";
layers = (
{
layerId = m01;
shapes = (
{
closed = 1;
nodes = (
(424,130,l),
(402,96,o),
(349,60,o),
(282,60,cs),
(186,60,o),
(123,135,o),
(123,250,cs),
(123,366,o),
(188,440,o),
(288,440,cs),
(344,440,o),
(391,417,o),
(418,383,c),
(474,434,l),
(432,489,o),
(365,510,o),
(289,510,cs),
(130,510,o),
(37,420,o),
(37,250,cs),
(37,88,o),
(120,-10,o),
(282,-10,cs),
(375,-10,o),
(438,23,o),
(480,79,c)
);
}
);
width = 507;
}
);
metricLeft = o;
unicode = 99;
},
{
glyphname = d;
kernLeft = o;
kernRight = l;
lastChange = "2022-01-09 00:15:22 +0000";
layers = (
{
layerId = m01;
shapes = (
{
closed = 1;
nodes = (
(499,700,l),
(417,700,l),
(417,0,l),
(499,0,l)
);
},
{
closed = 1;
nodes = (
(357,440,o),
(417,372,o),
(417,250,cs),
(417,134,o),
(360,60,o),
(268,60,cs),
(178,60,o),
(123,128,o),
(123,250,cs),
(123,366,o),
(175,440,o),
(268,440,cs)
);
},
{
closed = 1;
nodes = (
(129,510,o),
(37,420,o),
(37,252,cs),
(37,88,o),
(125,-10,o),
(250,-10,cs),
(427,-10,o),
(489,184,o),
(489,251,cs),
(489,318,o),
(428,510,o),
(251,510,cs)
);
}
);
width = 549;
}
);
metricLeft = q;
metricRight = q;
unicode = 100;
},
{
glyphname = e;
kernLeft = o;
kernRight = e;
lastChange = "2022-01-09 01:25:43 +0000";
layers = (
{
layerId = m01;
shapes = (
{
closed = 1;
nodes = (
(499,224,l),
(499,233,o),
(499,241,o),
(499,250,cs),
(499,412,o),
(419,510,o),
(268,510,cs),
(123,510,o),
(37,419,o),
(37,252,cs),
(37,87,o),
(120,-10,o),
(269,-10,cs),
(360,-10,o),
(427,26,o),
(481,92,c),
(427,137,l),
(401,93,o),
(333,60,o),
(270,60,cs),
(180,60,o),
(123,128,o),
(123,249,cs),
(123,366,o),
(176,440,o),
(268,440,cs),
(358,440,o),
(413,372,o),
(413,250,cs),
(413,241,o),
(413,232,o),
(413,224,c)
);
},
{
closed = 1;
nodes = (
(87,224,l),
(487,224,l),
(487,292,l),
(87,292,l)
);
}
);
width = 529;
}
);
metricLeft = o;
unicode = 101;
},
{
glyphname = f;
kernLeft = f;
kernRight = f;
lastChange = "2022-01-09 00:15:02 +0000";
layers = (
{
layerId = m01;
shapes = (
{
closed = 1;
nodes = (
(298,703,o),
(261,712,o),
(227,712,cs),
(139,712,o),
(96,652,o),
(96,571,c),
(96,0,l),
(178,0,l),
(178,561,l),
(180,612,o),
(199,642,o),
(237,642,cs),
(256,642,o),
(280,634,o),
(288,626,c),
(317,684,l)
);
},
{
closed = 1;
nodes = (
(10,432,l),
(288,432,l),
(288,500,l),
(10,500,l)
);
}
);
width = 317;
}
);
unicode = 102;
},
{
glyphname = g;
kernLeft = o;
kernRight = l;
lastChange = "2022-01-09 00:15:22 +0000";
layers = (
{
layerId = m01;
shapes = (
{
closed = 1;
nodes = (
(357,60,o),
(417,128,o),
(417,250,cs),
(417,366,o),
(360,440,o),
(268,440,cs),
(178,440,o),
(123,372,o),
(123,250,cs),
(123,134,o),
(175,60,o),
(268,60,cs)
);
},
{
closed = 1;
nodes = (
(129,-10,o),
(37,80,o),
(37,248,cs),
(37,412,o),
(125,510,o),
(250,510,cs),
(427,510,o),
(489,316,o),
(489,249,cs),
(489,182,o),
(428,-10,o),
(251,-10,cs)
);
},
{
closed = 1;
nodes = (
(109,-84,l),
(156,-128,o),
(204,-148,o),
(266,-147,cs),
(377,-145,o),
(417,-81,o),
(417,-9,c),
(417,500,l),
(499,500,l),
(499,-42,l),
(499,-137,o),
(413,-217,o),
(267,-217,cs),
(186,-217,o),
(118,-192,o),
(73,-145,c)
);
}
);
width = 549;
}
);
metricLeft = o;
metricRight = n;
unicode = 103;
},
{
glyphname = h;
kernLeft = l;
kernRight = n;
lastChange = "2022-01-09 00:28:06 +0000";
layers = (
{
layerId = m01;
shapes = (
{
closed = 1;
nodes = (
(50,0,l),
(132,0,l),
(132,700,l),
(50,700,l)
);
},
{
closed = 1;
nodes = (
(132,383,o),
(195,439,o),
(268,439,cs),
(333,439,o),
(379,395,o),
(379,321,c),
(379,0,l),
(462,0,l),
(462,357,l),
(462,466,o),
(367,510,o),
(291,510,cs),
(208,510,o),
(142,458,o),
(116,398,c),
(132,301,l)
);
}
);
width = 512;
}
);
metricLeft = n;
metricRight = n;
unicode = 104;
},
{
glyphname = i;
kernLeft = l;
kernRight = l;
lastChange = "2021-12-23 05:29:10 +0000";
layers = (
{
layerId = m01;
shapes = (
{
closed = 1;
nodes = (
(59,0,l),
(141,0,l),
(141,500,l),
(59,500,l)
);
},
{
closed = 1;
nodes = (
(132,577,o),
(148,592,o),
(148,626,cs),
(148,659,o),
(133,675,o),
(99,675,cs),
(66,675,o),
(50,660,o),
(50,626,cs),
(50,593,o),
(65,577,o),
(99,577,cs)
);
}
);
width = 198;
}
);
metricLeft = n;
metricRight = n;
unicode = 105;
},
{
glyphname = j;
kernLeft = j;
kernRight = l;
lastChange = "2022-01-08 06:47:28 +0000";
layers = (
{
layerId = m01;
shapes = (
{
closed = 1;
nodes = (
(57,-49,ls),
(57,-114,o),
(48,-152,o),
(-19,-152,c),
(-19,-220,l),
(106,-220,o),
(139,-180,o),
(139,-59,cs),
(139,500,l),
(57,500,l)
);
},
{
closed = 1;
nodes = (
(48,593,o),
(63,577,o),
(97,577,cs),
(130,577,o),
(146,592,o),
(146,626,cs),
(146,659,o),
(131,675,o),
(97,675,cs),
(64,675,o),
(48,660,o),
(48,626,cs)
);
}
);
width = 196;
}
);
metricRight = i;
unicode = 106;
},
{
glyphname = k;
kernLeft = l;
kernRight = k;
lastChange = "2021-12-23 05:29:16 +0000";
layers = (
{
layerId = m01;
shapes = (
{
closed = 1;
nodes = (
(50,0,l),
(132,0,l),
(132,700,l),
(50,700,l)
);
},
{
closed = 1;
nodes = (
(115,242,l),
(115,135,l),
(466,500,l),
(368,500,l)
);
},
{
closed = 1;
nodes = (
(388,0,l),
(486,0,l),
(259,327,l),
(191,274,l)
);
}
);
width = 496;
}
);
unicode = 107;
},
{
glyphname = l;
kernLeft = l;
kernRight = l;
lastChange = "2021-12-23 05:29:19 +0000";
layers = (
{
layerId = m01;
shapes = (
{
closed = 1;
nodes = (
(50,0,l),
(132,0,l),
(132,700,l),
(50,700,l)
);
}
);
width = 182;
}
);
metricLeft = i;
metricRight = i;
unicode = 108;
},
{
glyphname = m;
kernLeft = n;
kernRight = n;
lastChange = "2022-01-09 00:29:49 +0000";
layers = (
{
layerId = m01;
shapes = (
{
closed = 1;
nodes = (
(50,0,l),
(132,0,l),
(132,500,l),
(50,500,l)
);
},
{
closed = 1;
nodes = (
(132,383,o),
(185,439,o),
(258,439,cs),
(323,439,o),
(359,395,o),
(359,321,c),
(359,0,l),
(442,0,l),
(442,357,l),
(442,466,o),
(357,510,o),
(281,510,cs),
(198,510,o),
(142,458,o),
(116,398,c),
(132,301,l)
);
},
{
closed = 1;
nodes = (
(442,383,o),
(495,439,o),
(568,439,cs),
(633,439,o),
(669,395,o),
(669,321,c),
(669,0,l),
(752,0,l),
(752,357,l),
(752,466,o),
(667,510,o),
(591,510,cs),
(508,510,o),
(452,458,o),
(426,398,c),
(442,301,l)
);
}
);
width = 802;
}
);
metricLeft = n;
metricRight = n;
unicode = 109;
},
{
glyphname = n;
kernLeft = n;
kernRight = n;
lastChange = "2022-01-09 00:27:23 +0000";
layers = (
{
layerId = m01;
shapes = (
{
closed = 1;
nodes = (
(50,0,l),
(132,0,l),
(132,500,l),
(50,500,l)
);
},
{
closed = 1;
nodes = (
(132,383,o),
(195,439,o),
(268,439,cs),
(333,439,o),
(379,395,o),
(379,321,c),
(379,0,l),
(462,0,l),
(462,357,l),
(462,466,o),
(367,510,o),
(291,510,cs),
(208,510,o),
(142,458,o),
(116,398,c),
(132,301,l)
);
}
);
width = 512;
}
);
unicode = 110;
},
{
glyphname = o;
kernLeft = o;
kernRight = o;
lastChange = "2022-01-09 00:20:20 +0000";
layers = (
{
layerId = m01;
shapes = (
{
closed = 1;
nodes = (
(179,58,o),
(122,128,o),
(122,250,cs),
(122,366,o),
(176,442,o),
(268,442,cs),
(358,442,o),
(415,372,o),
(415,250,cs),
(415,134,o),
(361,58,o),
(268,58,cs)
);
},
{
closed = 1;
nodes = (
(415,-10,o),
(501,80,o),
(501,248,cs),
(501,412,o),
(419,510,o),
(268,510,cs),
(123,510,o),
(37,420,o),
(37,252,cs),
(37,88,o),
(119,-10,o),
(270,-10,cs)
);
}
);
width = 538;
}
);
unicode = 111;
},
{
glyphname = p;
kernLeft = l;
kernRight = o;
lastChange = "2022-01-09 00:15:22 +0000";
layers = (
{
layerId = m01;
shapes = (
{
closed = 1;
nodes = (
(50,-200,l),
(132,-200,l),
(132,500,l),
(50,500,l)
);
},
{
closed = 1;
nodes = (
(192,60,o),
(132,128,o),
(132,250,cs),
(132,366,o),
(189,440,o),
(281,440,cs),
(371,440,o),
(426,372,o),
(426,250,cs),
(426,134,o),
(374,60,o),
(281,60,cs)
);
},
{
closed = 1;
nodes = (
(420,-10,o),
(512,80,o),
(512,248,cs),
(512,412,o),
(424,510,o),
(299,510,cs),
(122,510,o),
(60,316,o),
(60,249,cs),
(60,182,o),
(121,-10,o),
(298,-10,cs)
);
}
);
width = 549;
}
);
metricLeft = n;
metricRight = o;
unicode = 112;
},
{
glyphname = q;
kernLeft = o;
kernRight = l;
lastChange = "2022-01-09 00:15:22 +0000";
layers = (
{
layerId = m01;
shapes = (
{
closed = 1;
nodes = (
(499,-200,l),
(417,-200,l),
(417,500,l),
(499,500,l)
);
},
{
closed = 1;
nodes = (
(357,60,o),
(417,128,o),
(417,250,cs),
(417,366,o),
(360,440,o),
(268,440,cs),
(178,440,o),
(123,372,o),
(123,250,cs),
(123,134,o),
(175,60,o),
(268,60,cs)
);
},
{
closed = 1;
nodes = (
(129,-10,o),
(37,80,o),
(37,248,cs),
(37,412,o),
(125,510,o),
(250,510,cs),
(427,510,o),
(489,316,o),
(489,249,cs),
(489,182,o),
(428,-10,o),
(251,-10,cs)
);
}
);
width = 549;
}
);
metricLeft = o;
metricRight = n;
unicode = 113;
},
{
glyphname = r;
kernLeft = l;
kernRight = r;
lastChange = "2022-01-09 00:32:34 +0000";
layers = (
{
layerId = m01;
shapes = (
{
closed = 1;
nodes = (
(50,0,l),
(132,0,l),
(132,500,l),
(50,500,l)
);
},
{
closed = 1;
nodes = (
(331,500,l),
(317,503,o),
(305,504,o),
(291,504,cs),
(208,504,o),
(142,442,o),
(116,382,c),
(132,276,l),
(132,358,o),
(195,427,o),
(268,427,cs),
(285,427,o),
(305,423,o),
(319,417,c)
);
}
);
width = 356;
}
);
metricLeft = n;
unicode = 114;
},
{
glyphname = s;
kernLeft = s;
kernRight = s;
lastChange = "2022-01-09 00:33:11 +0000";
layers = (
{
layerId = m01;
shapes = (
{
closed = 1;
nodes = (
(30,114,l),
(40,37,o),
(147,-10,o),
(239,-10,cs),
(318,-10,o),
(443,25,o),
(443,137,cs),
(443,328,o),
(116,247,o),
(116,370,cs),
(116,423,o),
(182,440,o),
(230,440,cs),
(291,440,o),
(344,412,o),
(361,370,c),
(432,396,l),
(413,455,o),
(331,510,o),
(231,510,cs),
(149,510,o),
(36,472,o),
(36,366,cs),
(36,175,o),
(363,254,o),
(363,135,cs),
(363,79,o),
(286,59,o),
(237,59,cs),
(182,59,o),
(117,85,o),
(104,136,c)
);
}
);
width = 473;
}
);
unicode = 115;
},
{
glyphname = t;
kernLeft = t;
kernRight = t;
lastChange = "2022-01-09 00:15:02 +0000";
layers = (
{
layerId = m01;
shapes = (
{
closed = 1;
nodes = (
(279,4,o),
(253,-10,o),
(213,-10,cs),
(131,-10,o),
(86,49,o),
(86,131,c),
(86,620,l),
(168,620,l),
(168,141,l),
(172,77,o),
(181,60,o),
(229,60,cs),
(239,60,o),
(243,61,o),
(275,76,c),
(302,26,l)
);
},
{
closed = 1;
nodes = (
(10,500,l),
(271,500,l),
(271,432,l),
(10,432,l)
);
}
);
width = 312;
}
);
metricLeft = f;
metricRight = "=f+10";
unicode = 116;
},
{
glyphname = u;
kernLeft = n;
kernRight = n;
lastChange = "2022-01-09 01:21:07 +0000";
layers = (
{
layerId = m01;
shapes = (
{
closed = 1;
nodes = (
(462,500,l),
(380,500,l),
(380,0,l),
(462,0,l)
);
},
{
closed = 1;
nodes = (
(380,117,o),
(317,61,o),
(244,61,cs),
(179,61,o),
(133,105,o),
(133,179,c),
(133,500,l),
(50,500,l),
(50,143,l),
(50,34,o),
(145,-10,o),
(221,-10,cs),
(304,-10,o),
(370,42,o),
(396,102,c),
(380,199,l)
);
}
);
width = 512;
}
);
metricLeft = n;
metricRight = n;
unicode = 117;
},
{
glyphname = v;
kernLeft = v;
kernRight = v;
lastChange = "2021-12-23 05:30:15 +0000";
layers = (
{
layerId = m01;
shapes = (
{
closed = 1;
nodes = (
(219,0,l),
(301,0,l),
(119,500,l),
(30,500,l)
);
},
{
closed = 1;
nodes = (
(429,500,l),
(247,0,l),
(324,0,l),
(513,500,l)
);
}
);
width = 543;
}
);
metricLeft = x;
metricRight = x;
unicode = 118;
},
{
glyphname = w;
kernLeft = w;
kernRight = w;
lastChange = "2022-01-09 00:57:01 +0000";
layers = (
{
background = {
shapes = (
{
closed = 1;
nodes = (
(588,0,l),
(429,500,l),
(354,500,l),
(511,0,l)
);
},
{
closed = 1;
nodes = (
(265,0,l),
(121,500,l),
(32,500,l),
(187,0,l)
);
},
{
closed = 1;
nodes = (
(272,0,l),
(429,500,l),
(354,500,l),
(195,0,l)
);
},
{
closed = 1;
nodes = (
(596,0,l),
(751,500,l),
(662,500,l),
(518,0,l)
);
},
{
closed = 1;
nodes = (
(588,0,l),
(429,500,l),
(354,500,l),
(511,0,l)
);
},
{
closed = 1;
nodes = (
(265,0,l),
(121,500,l),
(32,500,l),
(187,0,l)
);
},
{
closed = 1;
nodes = (
(272,0,l),
(429,500,l),
(354,500,l),
(195,0,l)
);
},
{
closed = 1;
nodes = (
(596,0,l),
(751,500,l),
(662,500,l),
(518,0,l)
);
}
);
};
layerId = m01;
shapes = (
{
closed = 1;
nodes = (
(247,0,l),
(119,500,l),
(30,500,l),
(177,0,l)
);
},
{
closed = 1;
nodes = (
(281,0,l),
(403,500,l),
(340,500,l),
(209,0,l)
);
},
{
closed = 1;
nodes = (
(569,0,l),
(441,500,l),
(369,500,l),
(499,0,l)
);
},
{
closed = 1;
nodes = (
(603,0,l),
(742,500,l),
(662,500,l),
(531,0,l)
);
}
);
width = 772;
}
);
metricLeft = v;
metricRight = v;
unicode = 119;
},
{
glyphname = x;
kernLeft = x;
kernRight = x;
lastChange = "2022-01-09 01:43:43 +0000";
layers = (
{
layerId = m01;
shapes = (
{
closed = 1;
nodes = (
(390,0,l),
(487,0,l),
(127,500,l),
(30,500,l)
);
},
{
closed = 1;
nodes = (
(249,288,l),
(293,220,l),
(487,500,l),
(390,500,l)
);
},
{
closed = 1;
nodes = (
(127,0,l),
(268,212,l),
(224,280,l),
(30,0,l)
);
}
);
width = 517;
}
);
unicode = 120;
},
{
glyphname = y;
kernLeft = y;
kernRight = y;
lastChange = "2022-01-09 00:15:02 +0000";
layers = (
{
layerId = m01;
shapes = (
{
closed = 1;
nodes = (
(238,-23,l),
(301,20,l),
(119,500,l),
(30,500,l)
);
},
{
closed = 1;
nodes = (
(203,-86,o),
(170,-145,o),
(121,-145,cs),
(106,-145,o),
(83,-139,o),
(68,-131,c),
(68,-200,l),
(88,-209,o),
(112,-213,o),
(130,-213,cs),
(211,-213,o),
(265,-129,o),
(303,-30,cs),
(504,500,l),
(419,500,l),
(261,56,l),
(239,-2,l),
(227,-30,ls)
);
}
);
width = 534;
}
);
metricLeft = v;
metricRight = v;
unicode = 121;
},
{
glyphname = z;
kernLeft = z;
kernRight = z;
lastChange = "2021-12-23 05:30:27 +0000";
layers = (
{
layerId = m01;
shapes = (
{
closed = 1;
nodes = (
(354,440,l),
(40,59,l),
(138,59,l),
(452,440,l)
);
},
{
closed = 1;
nodes = (
(45,424,l),
(404,424,l),
(452,440,l),
(452,499,l),
(45,499,l)
);
},
{
closed = 1;
nodes = (
(40,43,l),
(40,0,l),
(457,0,l),
(457,75,l),
(78,75,l),
(40,59,l)
);
}
);
width = 497;
}
);
unicode = 122;
},
{
glyphname = a.single;
lastChange = "2022-01-09 01:21:50 +0000";
layers = (
{
layerId = m01;
shapes = (
{
closed = 1;
nodes = (
(499,0,l),
(417,0,l),
(417,500,l),
(499,500,l)
);
},
{
closed = 1;
nodes = (
(357,60,o),
(417,128,o),
(417,250,cs),
(417,366,o),
(360,440,o),
(268,440,cs),
(178,440,o),
(123,372,o),
(123,250,cs),
(123,134,o),
(175,60,o),
(268,60,cs)
);
},
{
closed = 1;
nodes = (
(129,-10,o),
(37,80,o),
(37,248,cs),
(37,412,o),
(125,510,o),
(250,510,cs),
(427,510,o),
(489,316,o),
(489,249,cs),
(489,182,o),
(428,-10,o),
(251,-10,cs)
);
}
);
width = 549;
}
);
metricLeft = d;
metricRight = d;
},
{
glyphname = zero;
lastChange = "2021-12-21 07:14:56 +0000";
layers = (
{
layerId = m01;
shapes = (
{
closed = 1;
nodes = (
(174,63,o),
(128,145,o),
(128,340,cs),
(128,535,o),
(174,617,o),
(279,617,cs),
(386,617,o),
(432,535,o),
(432,340,cs),
(432,145,o),
(386,63,o),
(279,63,cs)
);
},
{
closed = 1;
nodes = (
(435,-10,o),
(522,115,o),
(522,340,cs),
(522,565,o),
(435,690,o),
(280,690,cs),
(125,690,o),
(38,565,o),
(38,340,cs),
(38,115,o),
(125,-10,o),
(280,-10,cs)
);
}
);
width = 560;
}
);
unicode = 48;
},
{
glyphname = one;
lastChange = "2021-12-23 00:26:39 +0000";
layers = (
{
layerId = m01;
shapes = (
{
closed = 1;
nodes = (
(261,681,l),
(95,562,l),
(95,482,l),
(261,601,l)
);
},
{
closed = 1;
nodes = (
(260,0,l),
(342,0,l),
(342,680,l),
(260,680,l)
);
}
);
width = 561;
}
);
unicode = 49;
},
{
glyphname = two;
lastChange = "2022-01-09 00:33:25 +0000";
layers = (
{
layerId = m01;
shapes = (
{
closed = 1;
nodes = (
(63,0,l),
(493,0,l),
(493,72,l),
(167,72,l),
(275,169,ls),
(424,303,o),
(489,386,o),
(489,487,cs),
(489,582,o),
(430,690,o),
(275,690,cs),
(178,690,o),
(106,647,o),
(60,552,c),
(133,515,l),
(164,584,o),
(207,613,o),
(275,613,cs),
(375,613,o),
(399,542,o),
(399,487,cs),
(399,408,o),
(349,335,o),
(204,204,cs),
(63,77,l)
);
}
);
width = 560;
}
);
unicode = 50;
},
{
glyphname = three;
lastChange = "2022-01-09 00:15:02 +0000";
layers = (
{
layerId = m01;
shapes = (
{
closed = 1;
nodes = (
(200,320,l),
(264,320,ls),
(362,320,o),
(413,261,o),
(413,184,cs),
(413,105,o),
(359,63,o),
(268,63,cs),
(181,63,o),
(142,102,o),
(116,164,c),
(42,142,l),
(82,18,o),
(180,-10,o),
(264,-10,cs),
(389,-10,o),
(503,52,o),
(503,179,cs),
(503,302,o),
(397,376,o),
(252,376,cs),
(235,376,o),
(217,375,o),
(200,374,c)
);
},
{
closed = 1;
nodes = (
(200,349,l),
(217,347,o),
(235,346,o),
(252,346,cs),
(381,346,o),
(478,404,o),
(478,513,cs),
(478,617,o),
(390,690,o),
(264,690,cs),
(167,690,o),
(96,647,o),
(53,552,c),
(121,514,l),
(151,583,o),
(194,617,o),
(265,617,cs),
(337,617,o),
(388,582,o),
(388,503,cs),
(388,392,o),
(286,392,o),
(264,392,cs),
(200,392,l)
);
}
);
width = 560;
}
);
unicode = 51;
},
{
glyphname = four;
lastChange = "2021-12-23 00:26:53 +0000";
layers = (
{
layerId = m01;
shapes = (
{
closed = 1;
nodes = (
(437,680,l),
(331,680,l),
(27,224,l),
(27,148,l),
(524,148,l),
(524,220,l),
(60,220,l),
(88,177,l),
(396,650,l),
(351,650,l),
(351,-3,l),
(437,-3,l)
);
}
);
width = 561;
}
);
unicode = 52;
},
{
glyphname = five;
lastChange = "2022-01-09 00:35:53 +0000";
layers = (
{
layerId = m01;
shapes = (
{
closed = 1;
nodes = (
(170,608,l),
(478,608,l),
(478,680,l),
(102,680,l),
(69,339,l),
(144,346,l)
);
},
{
closed = 1;
nodes = (
(261,-10,l),
(403,-10,o),
(504,76,o),
(504,216,cs),
(504,351,o),
(410,450,o),
(261,450,cs),
(163,450,o),
(118,406,o),
(71,339,c),
(133,321,l),
(157,356,o),
(187,377,o),
(252,377,cs),
(353,377,o),
(414,325,o),
(414,219,cs),
(414,115,o),
(355,63,o),
(261,63,c)
);
},
{
closed = 1;
nodes = (
(261,63,l),
(182,63,o),
(143,102,o),
(118,164,c),
(46,142,l),
(85,18,o),
(180,-10,o),
(261,-10,c)
);
}
);
width = 560;
}
);
unicode = 53;
},
{
glyphname = six;
lastChange = "2022-01-09 00:15:02 +0000";
layers = (
{
layerId = m01;
shapes = (
{
closed = 1;
nodes = (
(283,441,l),
(152,441,o),
(97,345,o),
(99,211,cs),
(101,85,o),
(154,13,o),
(283,13,c),
(283,49,l),
(198,49,o),
(144,107,o),
(138,204,cs),
(131,312,o),
(191,368,o),
(283,368,c)
);
},
{
closed = 1;
nodes = (
(283,368,l),
(377,368,o),
(426,315,o),
(426,221,cs),
(426,124,o),
(374,62,o),
(281,62,cs),
(174,62,o),
(125,143,o),
(125,333,cs),
(125,527,o),
(176,620,o),
(289,620,c),
(289,693,l),
(128,693,o),
(41,550,o),
(41,337,cs),
(41,114,o),
(137,-11,o),
(283,-11,cs),
(416,-11,o),
(516,97,o),
(516,221,cs),
(516,345,o),
(418,441,o),
(283,441,c)
);
},
{
closed = 1;
nodes = (
(357,620,o),
(400,587,o),
(431,518,c),
(504,555,l),
(458,650,o),
(386,693,o),
(289,693,c),
(289,620,l)
);
}
);
width = 560;
}
);
unicode = 54;
},
{
glyphname = seven;
lastChange = "2021-12-23 00:27:10 +0000";
layers = (
{
layerId = m01;
shapes = (
{
closed = 1;
nodes = (
(500,598,l),
(500,680,l),
(53,680,l),
(53,608,l),
(478,608,l),
(440,646,l),
(129,0,l),
(213,0,l)
);
}
);
width = 560;
}
);
unicode = 55;
},
{
glyphname = eight;
lastChange = "2022-01-09 00:15:02 +0000";
layers = (
{
layerId = m01;
shapes = (
{
closed = 1;
nodes = (
(132,373,o),
(35,301,o),
(35,182,cs),
(35,51,o),
(151,-10,o),
(280,-10,cs),
(409,-10,o),
(525,51,o),
(525,181,cs),
(525,301,o),
(427,373,o),
(279,373,cs)
);
},
{
closed = 1;
nodes = (
(381,319,o),
(435,262,o),
(435,184,cs),
(435,103,o),
(376,63,o),
(280,63,cs),
(183,63,o),
(125,103,o),
(125,185,cs),
(125,263,o),
(178,319,o),
(279,319,cs)
);
},
{
closed = 1;
nodes = (
(411,348,o),
(499,396,o),
(499,507,cs),
(499,619,o),
(410,690,o),
(280,690,cs),
(149,690,o),
(61,618,o),
(61,507,cs),
(61,396,o),
(148,348,o),
(279,348,cs)
);
},
{
closed = 1;
nodes = (
(195,391,o),
(151,433,o),
(151,505,cs),
(151,580,o),
(199,617,o),
(280,617,cs),
(361,617,o),
(409,580,o),
(409,506,cs),
(409,434,o),
(364,391,o),
(279,391,cs)
);
}
);
width = 560;
}
);
unicode = 56;
},
{
glyphname = nine;
lastChange = "2022-01-09 00:15:02 +0000";
layers = (
{
layerId = m01;
shapes = (
{
closed = 1;
nodes = (
(276,241,l),
(407,241,o),
(462,337,o),
(460,471,cs),
(458,597,o),
(405,669,o),
(276,669,c),
(276,633,l),
(361,633,o),
(415,575,o),
(421,478,cs),
(428,370,o),
(368,314,o),
(276,314,c)
);
},
{
closed = 1;
nodes = (
(276,314,l),
(182,314,o),
(133,367,o),
(133,461,cs),
(133,558,o),
(185,620,o),
(278,620,cs),
(385,620,o),
(434,539,o),
(434,349,cs),
(434,155,o),
(383,62,o),
(270,62,c),
(270,-11,l),
(431,-11,o),
(518,132,o),
(518,345,cs),
(518,568,o),
(422,693,o),
(276,693,cs),
(143,693,o),
(43,585,o),
(43,461,cs),
(43,337,o),
(141,241,o),
(276,241,c)
);
},
{
closed = 1;
nodes = (
(202,62,o),
(159,95,o),
(128,164,c),
(55,127,l),
(101,32,o),
(173,-11,o),
(270,-11,c),
(270,62,l)
);
}
);
width = 560;
}
);
unicode = 57;
},
{
glyphname = one.base;
lastChange = "2021-12-20 08:39:41 +0000";
layers = (
{
layerId = m01;
shapes = (
{
closed = 1;
nodes = (
(257,681,l),
(91,562,l),
(91,482,l),
(257,601,l)
);
},
{
closed = 1;
nodes = (
(256,0,l),
(338,0,l),
(338,680,l),
(256,680,l)
);
},
{
closed = 1;
nodes = (
(493,0,l),
(493,68,l),
(91,68,l),
(91,0,l)
);
}
);
width = 561;
}
);
},
{
glyphname = zero.dotted;
lastChange = "2021-12-22 04:43:26 +0000";
layers = (
{
layerId = m01;
shapes = (
{
closed = 1;
nodes = (
(316,287,o),
(333,303,o),
(333,340,cs),
(333,376,o),
(317,393,o),
(280,393,cs),
(244,393,o),
(227,377,o),
(227,340,cs),
(227,304,o),
(243,287,o),
(280,287,cs)
);
},
{
closed = 1;
nodes = (
(174,63,o),
(128,145,o),
(128,340,cs),
(128,535,o),
(174,617,o),
(279,617,cs),
(386,617,o),
(432,535,o),
(432,340,cs),
(432,145,o),
(386,63,o),
(279,63,cs)
);
},
{
closed = 1;
nodes = (
(435,-10,o),
(522,115,o),
(522,340,cs),
(522,565,o),
(435,690,o),
(280,690,cs),
(125,690,o),
(38,565,o),
(38,340,cs),
(38,115,o),
(125,-10,o),
(280,-10,cs)
);
}
);
width = 560;
}
);
},
{
glyphname = zero.slashed;
lastChange = "2021-12-22 04:43:30 +0000";
layers = (
{
layerId = m01;
shapes = (
{
closed = 1;
nodes = (
(55,210,l),
(97,155,l),
(503,461,l),
(461,516,l)
);
},
{
closed = 1;
nodes = (
(174,63,o),
(128,145,o),
(128,340,cs),
(128,535,o),
(174,617,o),
(279,617,cs),
(386,617,o),
(432,535,o),
(432,340,cs),
(432,145,o),
(386,63,o),
(279,63,cs)
);
},
{
closed = 1;
nodes = (
(435,-10,o),
(522,115,o),
(522,340,cs),
(522,565,o),
(435,690,o),
(280,690,cs),
(125,690,o),
(38,565,o),
(38,340,cs),
(38,115,o),
(125,-10,o),
(280,-10,cs)
);
}
);
width = 560;
}
);
},
{
glyphname = period;
lastChange = "2021-12-20 08:13:46 +0000";
layers = (
{
layerId = m01;
shapes = (
{
closed = 1;
nodes = (
(124,-10,o),
(141,6,o),
(141,43,cs),
(141,79,o),
(125,96,o),
(88,96,cs),
(52,96,o),
(35,80,o),
(35,43,cs),
(35,7,o),
(51,-10,o),
(88,-10,cs)
);
}
);
width = 176;
}
);
unicode = 46;
},
{
glyphname = comma;
lastChange = "2021-12-20 08:16:19 +0000";
layers = (
{
layerId = m01;
shapes = (
{
closed = 1;
nodes = (
(20,-103,l),
(85,-103,l),
(153,98,l),
(62,98,l)
);
}
);
width = 183;
}
);
unicode = 44;
},
{
glyphname = colon;
lastChange = "2021-12-20 08:17:28 +0000";
layers = (
{
layerId = m01;
shapes = (
{
closed = 1;
nodes = (
(124,-10,o),
(141,6,o),
(141,43,cs),
(141,79,o),
(125,96,o),
(88,96,cs),
(52,96,o),
(35,80,o),
(35,43,cs),
(35,7,o),
(51,-10,o),
(88,-10,cs)
);
},
{
closed = 1;
nodes = (
(124,382,o),
(141,398,o),
(141,435,cs),
(141,471,o),
(125,488,o),
(88,488,cs),
(52,488,o),
(35,472,o),
(35,435,cs),
(35,399,o),
(51,382,o),
(88,382,cs)
);
}
);
width = 176;
}
);
unicode = 58;
},
{
glyphname = semicolon;
lastChange = "2021-12-20 08:18:23 +0000";
layers = (
{
layerId = m01;
shapes = (
{
closed = 1;
nodes = (
(145,382,o),
(162,398,o),
(162,435,cs),
(162,471,o),
(146,488,o),
(109,488,cs),
(73,488,o),
(56,472,o),
(56,435,cs),
(56,399,o),
(72,382,o),
(109,382,cs)
);
},
{
closed = 1;
nodes = (
(20,-103,l),
(85,-103,l),
(153,98,l),
(62,98,l)
);
}
);
width = 197;
}
);
unicode = 59;
},
{
glyphname = exclam;
lastChange = "2021-12-20 08:24:02 +0000";
layers = (
{
layerId = m01;
shapes = (
{
closed = 1;
nodes = (
(134,191,l),
(141,680,l),
(59,680,l),
(66,191,l)
);
},
{
closed = 1;
nodes = (
(65,88,o),
(50,72,o),
(50,39,cs),
(50,5,o),
(66,-10,o),
(99,-10,cs),
(133,-10,o),
(148,6,o),
(148,39,cs),
(148,73,o),
(132,88,o),
(99,88,cs)
);
}
);
width = 198;
}
);
unicode = 33;
},
{
glyphname = exclamdown;
lastChange = "2021-12-21 21:17:26 +0000";
layers = (
{
layerId = m01;
shapes = (
{
closed = 1;
nodes = (
(59,-200,l),
(141,-200,l),
(134,289,l),
(66,289,l)
);
},
{
closed = 1;
nodes = (
(132,392,o),
(148,407,o),
(148,441,cs),
(148,474,o),
(133,490,o),
(99,490,cs),
(66,490,o),
(50,475,o),
(50,441,cs),
(50,408,o),
(65,392,o),
(99,392,cs)
);
}
);
width = 198;
}
);
unicode = 161;
},
{
glyphname = question;
lastChange = "2022-01-09 00:15:02 +0000";
layers = (
{
layerId = m01;
shapes = (
{
closed = 1;
nodes = (
(183,88,o),
(168,72,o),
(168,39,cs),
(168,5,o),
(184,-10,o),
(217,-10,cs),
(251,-10,o),
(266,6,o),
(266,39,cs),
(266,73,o),
(250,88,o),
(217,88,cs)
);
},
{
closed = 1;
nodes = (
(141,690,o),
(63,647,o),
(20,552,c),
(88,514,l),
(118,583,o),
(169,617,o),
(231,617,cs),
(306,617,o),
(358,569,o),
(358,502,cs),
(358,378,o),
(181,394,o),
(181,239,cs),
(181,191,l),
(253,191,l),
(253,226,ls),
(253,357,o),
(445,348,o),
(445,505,cs),
(445,613,o),
(355,690,o),
(233,690,cs)
);
}
);
width = 482;
}
);
metricRight = O;
unicode = 63;
},
{
glyphname = questiondown;
lastChange = "2021-12-22 07:35:04 +0000";
layers = (
{
layerId = m01;
shapes = (
{
closed = 1;
nodes = (
(299,392,o),
(314,408,o),
(314,441,cs),
(314,475,o),
(298,490,o),
(265,490,cs),
(231,490,o),
(216,474,o),
(216,441,cs),
(216,407,o),
(232,392,o),
(265,392,cs)
);
},
{
closed = 1;
nodes = (
(341,-210,o),
(419,-167,o),
(462,-72,c),
(394,-34,l),
(364,-103,o),
(313,-137,o),
(251,-137,cs),
(176,-137,o),
(124,-87,o),
(124,-26,cs),
(124,107,o),
(301,84,o),
(301,241,cs),
(301,289,l),
(229,289,l),
(229,254,ls),
(229,121,o),
(37,137,o),
(37,-30,cs),
(37,-131,o),
(127,-210,o),
(251,-210,cs)
);
}
);
width = 482;
}
);
metricLeft = O;
unicode = 191;
},
{
glyphname = asterisk;
lastChange = "2021-12-21 18:17:29 +0000";
layers = (
{
layerId = m01;
shapes = (
{
closed = 1;
nodes = (
(159,560,l),
(159,482,l),
(153,363,l),
(210,363,l),
(204,482,l),
(204,560,l),
(210,680,l),
(153,680,l)
);
},
{
closed = 1;
nodes = (
(159,560,l),
(159,482,l),
(153,363,l),
(210,363,l),
(204,482,l),
(204,560,l),
(210,680,l),
(153,680,l)
);
},
{
closed = 1;
nodes = (
(159,560,l),
(159,482,l),
(153,363,l),
(210,363,l),
(204,482,l),
(204,560,l),
(210,680,l),
(153,680,l)
);
},
{
closed = 1;
nodes = (
(159,560,l),
(159,482,l),
(153,363,l),
(210,363,l),
(204,482,l),
(204,560,l),
(210,680,l),
(153,680,l)
);
},
{
closed = 1;
nodes = (
(204,560,l),
(137,522,l),
(30,466,l),
(59,417,l),
(159,482,l),
(226,521,l),
(333,577,l),
(304,625,l)
);
},
{
closed = 1;
nodes = (
(204,560,l),
(137,522,l),
(30,466,l),
(59,417,l),
(159,482,l),
(226,521,l),
(333,577,l),
(304,625,l)
);
},
{
closed = 1;
nodes = (
(204,560,l),
(137,522,l),
(30,466,l),
(59,417,l),
(159,482,l),
(226,521,l),
(333,577,l),
(304,625,l)
);
},
{
closed = 1;
nodes = (
(204,560,l),
(137,522,l),
(30,466,l),
(59,417,l),
(159,482,l),
(226,521,l),
(333,577,l),
(304,625,l)
);
},
{
closed = 1;
nodes = (
(226,522,l),
(159,560,l),
(59,625,l),
(30,577,l),
(137,521,l),
(204,482,l),
(304,417,l),
(333,466,l)
);
},
{
closed = 1;
nodes = (
(226,522,l),
(159,560,l),
(59,625,l),
(30,577,l),
(137,521,l),
(204,482,l),
(304,417,l),
(333,466,l)
);
},
{
closed = 1;
nodes = (
(226,522,l),
(159,560,l),
(59,625,l),
(30,577,l),
(137,521,l),
(204,482,l),
(304,417,l),
(333,466,l)
);
},
{
closed = 1;
nodes = (
(226,522,l),
(159,560,l),
(59,625,l),
(30,577,l),
(137,521,l),
(204,482,l),
(304,417,l),
(333,466,l)
);
}
);
width = 363;
}
);
unicode = 42;
},
{
glyphname = numbersign;
lastChange = "2021-12-21 18:13:17 +0000";
layers = (
{
layerId = m01;
shapes = (
{
closed = 1;
nodes = (
(270,680,l),
(202,680,l),
(93,1,l),
(161,1,l)
);
},
{
closed = 1;
nodes = (
(82,516,l),
(82,452,l),
(518,452,l),
(518,516,l)
);
},
{
closed = 1;
nodes = (
(467,680,l),
(399,679,l),
(290,0,l),
(358,0,l)
);
},
{
closed = 1;
nodes = (
(42,232,l),
(42,168,l),
(478,168,l),
(478,232,l)
);
}
);
width = 560;
}
);
unicode = 35;
},
{
glyphname = slash;
lastChange = "2021-12-21 08:05:53 +0000";
layers = (
{
layerId = m01;
shapes = (
{
closed = 1;
nodes = (
(235,680,l),
(0,-200,l),
(77,-200,l),
(312,680,l)
);
}
);
width = 312;
}
);
unicode = 47;
},
{
glyphname = backslash;
lastChange = "2021-12-21 08:06:02 +0000";
layers = (
{
layerId = m01;
shapes = (
{
closed = 1;
nodes = (
(235,-200,l),
(312,-200,l),
(77,680,l),
(0,680,l)
);
}
);
width = 312;
}
);
unicode = 92;
},
{
glyphname = hyphen;
lastChange = "2021-12-21 08:19:42 +0000";
layers = (
{
layerId = m01;
shapes = (
{
closed = 1;
nodes = (
(386,228,l),
(386,310,l),
(50,310,l),
(50,228,l)
);
}
);
width = 436;
}
);
metricLeft = n;
metricRight = n;
unicode = 45;
},
{
glyphname = endash;
lastChange = "2021-12-20 17:56:38 +0000";
layers = (
{
layerId = m01;
shapes = (
{
closed = 1;
nodes = (
(450,230,l),
(450,308,l),
(0,308,l),
(0,230,l)
);
}
);
width = 450;
}
);
unicode = 8211;
},
{
glyphname = emdash;
lastChange = "2021-12-20 17:56:11 +0000";
layers = (
{
layerId = m01;
shapes = (
{
closed = 1;
nodes = (
(900,230,l),
(900,308,l),
(0,308,l),
(0,230,l)
);
}
);
width = 900;
}
);
unicode = 8212;
},
{
glyphname = underscore;
lastChange = "2021-12-20 17:59:03 +0000";
layers = (
{
layerId = m01;
shapes = (
{
closed = 1;
nodes = (
(473,-120,l),
(473,-60,l),
(-23,-60,l),
(-23,-120,l)
);
}
);
width = 450;
}
);
unicode = 95;
},
{
glyphname = parenleft;
lastChange = "2021-12-22 07:15:48 +0000";
layers = (
{
layerId = m01;
shapes = (
{
closed = 1;
nodes = (
(-6,374,o),
(-6,106,o),
(164,-200,c),
(233,-200,l),
(71,94,o),
(71,386,o),
(233,680,c),
(164,680,l)
);
}
);
width = 243;
}
);
metricLeft = O;
unicode = 40;
},
{
glyphname = parenright;
lastChange = "2021-12-22 07:15:48 +0000";
layers = (
{
layerId = m01;
shapes = (
{
closed = 1;
nodes = (
(10,680,l),
(172,386,o),
(172,94,o),
(10,-200,c),
(79,-200,l),
(249,106,o),
(249,374,o),
(79,680,c)
);
}
);
width = 243;
}
);
metricRight = O;
unicode = 41;
},
{
glyphname = braceleft;
lastChange = "2021-12-21 17:08:19 +0000";
layers = (
{
layerId = m01;
shapes = (
{
closed = 1;
nodes = (
(102,211,o),
(204,280,o),
(204,367,cs),
(204,538,ls),
(204,592,o),
(234,622,o),
(289,622,cs),
(319,622,l),
(319,678,l),
(289,678,ls),
(190,678,o),
(134,628,o),
(134,538,cs),
(134,367,ls),
(134,309,o),
(95,277,o),
(50,277,c),
(50,211,l)
);
},
{
closed = 1;
nodes = (
(112,211,o),
(204,280,o),
(204,367,cs),
(204,538,ls),
(204,592,o),
(234,622,o),
(289,622,cs),
(319,622,l),
(319,678,l),
(289,678,ls),
(190,678,o),
(134,628,o),
(134,538,cs),
(134,367,ls),
(134,309,o),
(95,277,o),
(50,277,c),
(50,211,l)
);
},
{
closed = 1;
nodes = (
(50,211,l),
(95,211,o),
(134,179,o),
(134,121,cs),
(134,-50,ls),
(134,-140,o),
(190,-190,o),
(289,-190,cs),
(319,-190,l),
(319,-134,l),
(289,-134,ls),
(234,-134,o),
(204,-104,o),
(204,-50,cs),
(204,121,ls),
(204,208,o),
(102,277,o),
(50,277,c)
);
},
{
closed = 1;
nodes = (
(50,211,l),
(95,211,o),
(134,179,o),
(134,121,cs),
(134,-50,ls),
(134,-140,o),
(190,-190,o),
(289,-190,cs),
(319,-190,l),
(319,-134,l),
(289,-134,ls),
(234,-134,o),
(204,-104,o),
(204,-50,cs),
(204,121,ls),
(204,208,o),
(112,277,o),
(50,277,c)
);
}
);
width = 339;
}
);
metricLeft = n;
unicode = 123;
},
{
glyphname = braceright;
lastChange = "2021-12-21 17:09:20 +0000";
layers = (
{
layerId = m01;
shapes = (
{
closed = 1;
nodes = (
(289,277,l),
(244,277,o),
(205,309,o),
(205,367,cs),
(205,538,ls),
(205,628,o),
(149,678,o),
(50,678,cs),
(20,678,l),
(20,622,l),
(50,622,ls),
(105,622,o),
(135,592,o),
(135,538,cs),
(135,367,ls),
(135,280,o),
(237,211,o),
(289,211,c)
);
},
{
closed = 1;
nodes = (
(289,277,l),
(244,277,o),
(205,309,o),
(205,367,cs),
(205,538,ls),
(205,628,o),
(149,678,o),
(50,678,cs),
(20,678,l),
(20,622,l),
(50,622,ls),
(105,622,o),
(135,592,o),
(135,538,cs),
(135,367,ls),
(135,280,o),
(227,211,o),
(289,211,c)
);
},
{
closed = 1;
nodes = (
(237,277,o),
(135,208,o),
(135,121,cs),
(135,-50,ls),
(135,-104,o),
(105,-134,o),
(50,-134,cs),
(20,-134,l),
(20,-190,l),
(50,-190,ls),
(149,-190,o),
(205,-140,o),
(205,-50,cs),
(205,121,ls),
(205,179,o),
(244,211,o),
(289,211,c),
(289,277,l)
);
},
{
closed = 1;
nodes = (
(227,277,o),
(135,208,o),
(135,121,cs),
(135,-50,ls),
(135,-104,o),
(105,-134,o),
(50,-134,cs),
(20,-134,l),
(20,-190,l),
(50,-190,ls),
(149,-190,o),
(205,-140,o),
(205,-50,cs),
(205,121,ls),
(205,179,o),
(244,211,o),
(289,211,c),
(289,277,l)
);
}
);
width = 339;
}
);
metricRight = n;
unicode = 125;
},
{
glyphname = bracketleft;
lastChange = "2021-12-21 17:08:40 +0000";
layers = (
{
layerId = m01;
shapes = (
{
closed = 1;
nodes = (
(50,-200,l),
(124,-200,l),
(124,680,l),
(50,680,l)
);
},
{
closed = 1;
nodes = (
(113,615,l),
(258,615,l),
(258,680,l),
(113,680,l)
);
},
{
closed = 1;
nodes = (
(113,-200,l),
(258,-200,l),
(258,-135,l),
(113,-135,l)
);
}
);
width = 278;
}
);
metricLeft = n;
unicode = 91;
},
{
glyphname = bracketright;
lastChange = "2021-12-21 17:08:43 +0000";
layers = (
{
layerId = m01;
shapes = (
{
closed = 1;
nodes = (
(154,680,l),
(154,-200,l),
(228,-200,l),
(228,680,l)
);
},
{
closed = 1;
nodes = (
(20,680,l),
(20,615,l),
(165,615,l),
(165,680,l)
);
},
{
closed = 1;
nodes = (
(20,-135,l),
(20,-200,l),
(165,-200,l),
(165,-135,l)
);
}
);
width = 278;
}
);
metricRight = n;
unicode = 93;
},
{
glyphname = quotedblleft;
lastChange = "2021-12-20 17:42:23 +0000";
layers = (
{
layerId = m01;
shapes = (
{
closed = 1;
nodes = (
(339,680,l),
(274,680,l),
(206,479,l),
(297,479,l)
);
},
{
closed = 1;
nodes = (
(163,680,l),
(98,680,l),
(30,479,l),
(121,479,l)
);
}
);
width = 359;
}
);
unicode = 8220;
},
{
glyphname = quoteleft;
lastChange = "2021-12-20 17:43:53 +0000";
layers = (
{
layerId = m01;
shapes = (
{
closed = 1;
nodes = (
(153,680,l),
(88,680,l),
(20,479,l),
(111,479,l)
);
}
);
width = 183;
}
);
metricLeft = quotedblright;
metricRight = quotedblright;
unicode = 8216;
},
{
glyphname = guillemetleft;
lastChange = "2021-12-22 04:05:17 +0000";
layers = (
{
layerId = m01;
shapes = (
{
closed = 1;
nodes = (
(386,55,l),
(471,55,l),
(300,250,l),
(471,445,l),
(386,445,l),
(214,250,l)
);
},
{
closed = 1;
nodes = (
(202,55,l),
(287,55,l),
(116,250,l),
(287,445,l),
(202,445,l),
(30,250,l)
);
}
);
width = 521;
}
);
metricRight = n;
unicode = 171;
},
{
glyphname = guillemetright;
lastChange = "2021-12-22 04:05:34 +0000";
layers = (
{
layerId = m01;
shapes = (
{
closed = 1;
nodes = (
(135,445,l),
(50,445,l),
(221,250,l),
(50,55,l),
(135,55,l),
(307,250,l)
);
},
{
closed = 1;
nodes = (
(319,445,l),
(234,445,l),
(405,250,l),
(234,55,l),
(319,55,l),
(491,250,l)
);
}
);
width = 521;
}
);
metricLeft = n;
unicode = 187;
},
{
glyphname = guilsinglleft;
lastChange = "2021-12-22 04:05:54 +0000";
layers = (
{
layerId = m01;
shapes = (
{
closed = 1;
nodes = (
(202,55,l),
(287,55,l),
(116,250,l),
(287,445,l),
(202,445,l),
(30,250,l)
);
}
);
width = 337;
}
);
unicode = 8249;
},
{
glyphname = guilsinglright;
lastChange = "2021-12-22 04:06:00 +0000";
layers = (
{
layerId = m01;
shapes = (
{
closed = 1;
nodes = (
(135,445,l),
(50,445,l),
(221,250,l),
(50,55,l),
(135,55,l),
(307,250,l)
);
}
);
width = 337;
}
);
unicode = 8250;
},
{
glyphname = quotedbl;
lastChange = "2021-12-21 19:43:17 +0000";
layers = (
{
layerId = m01;
shapes = (
{
closed = 1;
nodes = (
(60,479,l),
(132,479,l),
(137,680,l),
(55,680,l)
);
},
{
closed = 1;
nodes = (
(250,479,l),
(322,479,l),
(327,680,l),
(245,680,l)
);
}
);
width = 382;
}
);
unicode = 34;
},
{
glyphname = quotesingle;
lastChange = "2021-12-21 19:43:20 +0000";
layers = (
{
layerId = m01;
shapes = (
{
closed = 1;
nodes = (
(60,479,l),
(132,479,l),
(137,680,l),
(55,680,l)
);
}
);
width = 192;
}
);
unicode = 39;
},
{
glyphname = at;
lastChange = "2022-01-09 00:15:02 +0000";
layers = (
{
layerId = m01;
shapes = (
{
closed = 1;
nodes = (
(613,150,l),
(613,479,l),
(546,479,l),
(546,125,l)
);
},
{
closed = 1;
nodes = (
(497,427,o),
(546,372,o),
(546,273,cs),
(546,179,o),
(500,119,o),
(425,119,cs),
(352,119,o),
(307,174,o),
(307,273,cs),
(307,367,o),
(350,427,o),
(425,427,cs)
);
},
{
closed = 1;
nodes = (
(313,484,o),
(237,411,o),
(237,273,cs),
(237,141,o),
(307,62,o),
(410,62,cs),
(554,62,o),
(604,217,o),
(604,272,cs),
(604,327,o),
(555,484,o),
(411,484,cs)
);
},
{
closed = 1;
nodes = (
(840,326,l),
(840,544,o),
(683,690,o),
(443,690,cs),
(201,690,o),
(37,542,o),
(37,280,cs),
(37,20,o),
(198,-145,o),
(419,-145,cs),
(498,-145,o),
(572,-125,o),
(618,-108,c),
(595,-48,l),
(549,-69,o),
(496,-80,o),
(441,-80,cs),
(257,-80,o),
(112,41,o),
(112,273,cs),
(112,505,o),
(254,626,o),
(441,626,cs),
(630,626,o),
(767,505,o),
(767,326,c)
);
},
{
closed = 1;
nodes = (
(546,125,l),
(546,90,o),
(600,62,o),
(656,62,cs),
(769,62,o),
(840,175,o),
(840,326,c),
(767,326,l),
(767,234,o),
(738,119,o),
(658,119,cs),
(636,119,o),
(613,128,o),
(613,150,c)
);
}
);
width = 877;
}
);
metricLeft = o;
metricRight = o;
unicode = 64;
},
{
glyphname = ampersand;
lastChange = "2022-01-09 00:15:22 +0000";
layers = (
{
layerId = m01;
shapes = (
{
closed = 1;
nodes = (
(495,283,o),
(490,245,o),
(462,187,c),
(294,365,l),
(395,431,o),
(434,476,o),
(434,539,cs),
(434,625,o),
(359,690,o),
(269,690,cs),
(178,690,o),
(108,625,o),
(108,542,cs),
(108,506,o),
(122,450,o),
(187,378,c),
(77,306,o),
(37,240,o),
(37,174,cs),
(37,69,o),
(140,-10,o),
(265,-10,cs),
(345,-10,o),
(416,22,o),
(470,78,c),
(535,9,l),
(630,9,l),
(513,133,l),
(547,189,o),
(568,259,o),
(573,326,cs),
(574,341,o),
(575,356,o),
(575,372,c),
(501,372,l),
(501,358,o),
(501,358,o),
(500,346,cs)
);
},
{
closed = 1;
nodes = (
(114,222,o),
(139,268,o),
(234,327,c),
(423,127,l),
(382,82,o),
(328,60,o),
(265,60,cs),
(172,60,o),
(114,103,o),
(114,174,cs)
);
},
{
closed = 1;
nodes = (
(185,594,o),
(215,623,o),
(269,623,cs),
(323,623,o),
(357,593,o),
(357,539,cs),
(357,500,o),
(337,474,o),
(247,415,c),
(195,473,o),
(185,513,o),
(185,542,cs)
);
}
);
width = 614;
}
);
metricLeft = O;
unicode = 38;
},
{
glyphname = bar;
lastChange = "2021-12-20 08:33:10 +0000";
layers = (
{
layerId = m01;
shapes = (
{
closed = 1;
nodes = (
(50,-200,l),
(124,-200,l),
(124,680,l),
(50,680,l)
);
}
);
width = 174;
}
);
metricLeft = n;
metricRight = n;
unicode = 124;
},
{
glyphname = brokenbar;
lastChange = "2021-12-20 08:51:20 +0000";
layers = (
{
layerId = m01;
shapes = (
{
closed = 1;
nodes = (
(50,338,l),
(124,338,l),
(124,680,l),
(50,680,l)
);
},
{
closed = 1;
nodes = (
(50,142,l),
(50,-200,l),
(124,-200,l),
(124,142,l)
);
}
);
width = 174;
}
);
unicode = 166;
},
{
glyphname = dollar;
lastChange = "2022-01-09 00:15:22 +0000";
layers = (
{
layerId = m01;
shapes = (
{
closed = 1;
nodes = (
(111,30,o),
(227,17,o),
(288,17,cs),
(446,17,o),
(523,105,o),
(521,192,cs),
(518,289,o),
(416,348,o),
(304,383,cs),
(221,409,o),
(159,416,o),
(159,492,cs),
(159,568,o),
(220,592,o),
(301,592,cs),
(377,592,o),
(433,570,o),
(478,539,c),
(504,606,l),
(456,642,o),
(372,662,o),
(301,662,cs),
(198,662,o),
(73,620,o),
(73,492,cs),
(73,366,o),
(196,340,o),
(278,315,cs),
(353,292,o),
(435,254,o),
(435,187,cs),
(435,139,o),
(393,87,o),
(282,87,cs),
(203,87,o),
(137,113,o),
(90,164,c),
(59,98,l)
);
},
{
closed = 1;
nodes = (
(338,629,l),
(338,735,l),
(258,735,l),
(258,629,l)
);
},
{
closed = 1;
nodes = (
(330,57,l),
(330,629,l),
(266,629,l),
(266,57,l)
);
},
{
closed = 1;
nodes = (
(258,57,l),
(258,-67,l),
(338,-67,l),
(338,57,l)
);
}
);
width = 600;
}
);
unicode = 36;
},
{
glyphname = plus;
lastChange = "2021-12-20 19:04:19 +0000";
layers = (
{
layerId = m01;
shapes = (
{
closed = 1;
nodes = (
(500,230,l),
(500,308,l),
(50,308,l),
(50,230,l)
);
},
{
closed = 1;
nodes = (
(314,494,l),
(236,494,l),
(236,44,l),
(314,44,l)
);
}
);
width = 550;
}
);
metricLeft = n;
metricRight = n;
unicode = 43;
},
{
glyphname = equal;
lastChange = "2021-12-21 08:20:54 +0000";
layers = (
{
layerId = m01;
shapes = (
{
closed = 1;
nodes = (
(533,123,l),
(533,201,l),
(50,201,l),
(50,123,l)
);
},
{
closed = 1;
nodes = (
(533,323,l),
(533,401,l),
(50,401,l),
(50,323,l)
);
}
);
width = 583;
}
);
metricLeft = n;
metricRight = n;
unicode = 61;
},
{
glyphname = greater;
lastChange = "2021-12-21 20:00:33 +0000";
layers = (
{
layerId = m01;
shapes = (
{
closed = 1;
nodes = (
(50,0,l),
(478,212,l),
(478,288,l),
(50,500,l),
(50,427,l),
(394,250,l),
(50,73,l)
);
}
);
width = 528;
}
);
metricLeft = n;
metricRight = n;
unicode = 62;
},
{
glyphname = less;
lastChange = "2021-12-21 20:00:30 +0000";
layers = (
{
layerId = m01;
shapes = (
{
closed = 1;
nodes = (
(134,250,l),
(478,427,l),
(478,500,l),
(50,288,l),
(50,212,l),
(478,0,l),
(478,73,l)
);
}
);
width = 528;
}
);
metricLeft = n;
metricRight = n;
unicode = 60;
},
{
glyphname = asciitilde;
lastChange = "2022-01-09 00:15:02 +0000";
layers = (
{
layerId = m01;
shapes = (
{
closed = 1;
nodes = (
(420,286,o),
(389,257,o),
(353,257,cs),
(293,257,o),
(243,339,o),
(157,339,cs),
(94,339,o),
(45,295,o),
(30,224,c),
(79,201,l),
(87,243,o),
(118,272,o),
(154,272,cs),
(214,272,o),
(264,190,o),
(350,190,cs),
(413,190,o),
(462,234,o),
(477,305,c),
(428,328,l)
);
}
);
width = 507;
}
);
unicode = 126;
},
{
glyphname = asciicircum;
lastChange = "2021-12-22 06:52:03 +0000";
layers = (
{
layerId = m01;
shapes = (
{
closed = 1;
nodes = (
(186,632,l),
(265,452,l),
(342,452,l),
(240,680,l),
(132,680,l),
(30,452,l),
(107,452,l)
);
}
);
width = 372;
}
);
metricLeft = x;
metricRight = x;
unicode = 94;
},
{
glyphname = percent;
lastChange = "2022-01-09 00:15:02 +0000";
layers = (
{
layerId = m01;
shapes = (
{
closed = 1;
nodes = (
(583,680,l),
(97,0,l),
(174,0,l),
(660,680,l)
);
},
{
closed = 1;
nodes = (
(130,425,o),
(101,463,o),
(101,529,cs),
(101,593,o),
(129,634,o),
(180,634,cs),
(229,634,o),
(259,597,o),
(259,530,cs),
(259,466,o),
(231,425,o),
(179,425,cs)
);
},
{
closed = 1;
nodes = (
(270,369,o),
(324,424,o),
(324,529,cs),
(324,630,o),
(274,690,o),
(180,690,cs),
(91,690,o),
(37,634,o),
(37,529,cs),
(37,429,o),
(87,369,o),
(180,369,cs)
);
},
{
closed = 1;
nodes = (
(527,46,o),
(497,84,o),
(497,149,cs),
(497,213,o),
(526,253,o),
(575,253,cs),
(625,253,o),
(655,215,o),
(655,149,cs),
(655,86,o),
(626,46,o),
(575,46,cs)
);
},
{
closed = 1;
nodes = (
(666,-11,o),
(720,44,o),
(720,149,cs),
(720,250,o),
(670,310,o),
(576,310,cs),
(487,310,o),
(433,254,o),
(433,149,cs),
(433,49,o),
(483,-11,o),
(576,-11,cs)
);
}
);
width = 757;
}
);
metricLeft = o;
metricRight = o;
unicode = 37;
},
{
glyphname = perthousand;
lastChange = "2021-12-23 06:54:04 +0000";
layers = (
{
layerId = m01;
shapes = (
{
closed = 1;
nodes = (
(583,680,l),
(97,0,l),
(174,0,l),
(660,680,l)
);
},
{
closed = 1;
nodes = (
(130,425,o),
(101,463,o),
(101,529,cs),
(101,593,o),
(129,634,o),
(179,634,cs),
(230,634,o),
(259,596,o),
(259,529,cs),
(259,466,o),
(231,425,o),
(179,425,cs)
);
},
{
closed = 1;
nodes = (
(270,369,o),
(324,424,o),
(324,529,cs),
(324,630,o),
(274,690,o),
(180,690,cs),
(91,690,o),
(37,634,o),
(37,529,cs),
(37,429,o),
(87,369,o),
(180,369,cs)
);
},
{
closed = 1;
nodes = (
(527,46,o),
(497,84,o),
(497,149,cs),
(497,213,o),
(526,253,o),
(575,253,cs),
(625,253,o),
(655,215,o),
(655,149,cs),
(655,86,o),
(626,46,o),
(575,46,cs)
);
},
{
closed = 1;
nodes = (
(666,-11,o),
(720,44,o),
(720,149,cs),
(720,250,o),
(670,310,o),
(576,310,cs),
(487,310,o),
(433,254,o),
(433,149,cs),
(433,49,o),
(483,-11,o),
(576,-11,cs)
);
},
{
closed = 1;
nodes = (
(860,46,o),
(830,84,o),
(830,149,cs),
(830,213,o),
(859,253,o),
(908,253,cs),
(958,253,o),
(988,215,o),
(988,149,cs),
(988,86,o),
(959,46,o),
(908,46,cs)
);
},
{
closed = 1;
nodes = (
(999,-11,o),
(1053,44,o),
(1053,149,cs),
(1053,250,o),
(1003,310,o),
(909,310,cs),
(820,310,o),
(766,254,o),
(766,149,cs),
(766,49,o),
(816,-11,o),
(909,-11,cs)
);
}
);
width = 1090;
}
);
unicode = 8240;
},
{
glyphname = dieresiscomb;
lastChange = "2021-12-22 22:41:09 +0000";
layers = (
{
anchors = (
{
name = _top;
pos = (250,500);
},
{
name = top;
pos = (250,688);
}
);
layerId = m01;
shapes = (
{
closed = 1;
nodes = (
(191,582,o),
(208,598,o),
(208,635,cs),
(208,671,o),
(192,688,o),
(155,688,cs),
(119,688,o),
(102,672,o),
(102,635,cs),
(102,599,o),
(118,582,o),
(155,582,cs)
);
},
{
closed = 1;
nodes = (
(381,582,o),
(398,598,o),
(398,635,cs),
(398,671,o),
(382,688,o),
(345,688,cs),
(309,688,o),
(292,672,o),
(292,635,cs),
(292,599,o),
(308,582,o),
(345,582,cs)
);
}
);
width = 500;
}
);
unicode = 776;
},
{
glyphname = dotaccentcomb;
lastChange = "2021-12-22 22:41:47 +0000";
layers = (
{
anchors = (
{
name = _top;
pos = (250,500);
},
{
name = top;
pos = (250,688);
}
);
layerId = m01;
shapes = (
{
closed = 1;
nodes = (
(286,582,o),
(303,598,o),
(303,635,cs),
(303,671,o),
(287,688,o),
(250,688,cs),
(214,688,o),
(197,672,o),
(197,635,cs),
(197,599,o),
(213,582,o),
(250,582,cs)
);
}
);
width = 500;
}
);
unicode = 775;
},
{
glyphname = gravecomb;
lastChange = "2021-12-22 22:41:47 +0000";
layers = (
{
anchors = (
{
name = _top;
pos = (250,500);
},
{
name = top;
pos = (250,712);
}
);
layerId = m01;
shapes = (
{
closed = 1;
nodes = (
(220,580,l),
(285,580,l),
(224,712,l),
(129,712,l)
);
}
);
width = 500;
}
);
unicode = 768;
},
{
glyphname = acutecomb;
lastChange = "2021-12-22 22:45:56 +0000";
layers = (
{
anchors = (
{
name = _top;
pos = (250,500);
},
{
name = top;
pos = (250,712);
}
);
layerId = m01;
shapes = (
{
closed = 1;
nodes = (
(278,712,l),
(217,580,l),
(282,580,l),
(373,712,l)
);
}
);
width = 500;
}
);
unicode = 769;
},
{
glyphname = circumflexcomb;
lastChange = "2021-12-22 22:41:47 +0000";
layers = (
{
anchors = (
{
name = _top;
pos = (250,500);
},
{
name = top;
pos = (250,712);
}
);
layerId = m01;
shapes = (
{
closed = 1;
nodes = (
(336,580,l),
(408,580,l),
(294,712,l),
(218,712,l)
);
},
{
closed = 1;
nodes = (
(206,712,l),
(92,580,l),
(164,580,l),
(282,712,l)
);
}
);
width = 500;
}
);
unicode = 770;
},
{
glyphname = caroncomb;
lastChange = "2021-12-22 22:41:47 +0000";
layers = (
{
anchors = (
{
name = _top;
pos = (250,500);
},
{
name = top;
pos = (250,712);
}
);
layerId = m01;
shapes = (
{
closed = 1;
nodes = (
(294,580,l),
(408,712,l),
(336,712,l),
(218,580,l)
);
},
{
closed = 1;
nodes = (
(164,712,l),
(92,712,l),
(206,580,l),
(282,580,l)
);
}
);
width = 500;
}
);
unicode = 780;
},
{
glyphname = brevecomb;
lastChange = "2021-12-22 22:41:47 +0000";
layers = (
{
anchors = (
{
name = _top;
pos = (250,500);
},
{
name = top;
pos = (250,712);
}
);
layerId = m01;
shapes = (
{
closed = 1;
nodes = (
(335,577,o),
(395,638,o),
(395,712,c),
(336,712,l),
(336,659,o),
(305,623,o),
(250,623,cs),
(195,623,o),
(164,659,o),
(164,712,c),
(105,712,l),
(105,638,o),
(165,577,o),
(250,577,cs)
);
}
);
width = 500;
}
);
unicode = 774;
},
{
glyphname = ringcomb;
lastChange = "2021-12-22 22:41:47 +0000";
layers = (
{
anchors = (
{
name = _top;
pos = (250,500);
},
{
name = top;
pos = (250,726);
}
);
layerId = m01;
shapes = (
{
closed = 1;
nodes = (
(300,549,o),
(338,587,o),
(338,638,cs),
(338,688,o),
(300,726,o),
(250,726,cs),
(199,726,o),
(161,688,o),
(161,638,cs),
(161,587,o),
(199,549,o),
(250,549,cs)
);
},
{
closed = 1;
nodes = (
(221,588,o),
(200,609,o),
(200,638,cs),
(200,667,o),
(221,688,o),
(250,688,cs),
(279,688,o),
(300,667,o),
(300,638,cs),
(300,609,o),
(279,588,o),
(250,588,cs)
);
}
);
width = 500;
}
);
unicode = 778;
},
{
glyphname = tildecomb;
lastChange = "2021-12-22 23:03:36 +0000";
layers = (
{
anchors = (
{
name = _top;
pos = (1,500);
},
{
name = top;
pos = (1,670);
}
);
layerId = m01;
shapes = (
{
closed = 1;
nodes = (
(113,633,o),
(91,610,o),
(68,610,cs),
(28,610,o),
(-8,670,o),
(-64,670,cs),
(-105,670,o),
(-147,635,o),
(-157,584,c),
(-118,565,l),
(-112,596,o),
(-90,619,o),
(-67,619,cs),
(-27,619,o),
(9,559,o),
(65,559,cs),
(106,559,o),
(148,594,o),
(158,645,c),
(119,664,l)
);
}
);
width = 0;
}
);
unicode = 771;
},
{
glyphname = macroncomb;
lastChange = "2021-12-22 22:47:22 +0000";
layers = (
{
anchors = (
{
name = _top;
pos = (250,500);
},
{
name = top;
pos = (250,644);
}
);
layerId = m01;
shapes = (
{
closed = 1;
nodes = (
(105,580,l),
(395,580,l),
(395,644,l),
(105,644,l)
);
}
);
width = 500;
}
);
unicode = 772;
},
{
glyphname = cedillacomb;
lastChange = "2021-12-22 23:24:34 +0000";
layers = (
{
anchors = (
{
name = _bottom;
pos = (249,0);
},
{
name = bottom;
pos = (249,-208);
}
);
layerId = m01;
shapes = (
{
closed = 1;
nodes = (
(194,-98,l),
(267,-95,o),
(293,-105,o),
(293,-128,cs),
(293,-154,o),
(267,-158,o),
(236,-158,cs),
(210,-158,o),
(186,-152,o),
(166,-140,c),
(144,-186,l),
(168,-200,o),
(201,-208,o),
(236,-208,cs),
(285,-208,o),
(353,-190,o),
(353,-128,cs),
(353,-72,o),
(298,-49,o),
(244,-57,c),
(267,-5,l),
(228,11,l),
(194,-68,l)
);
}
);
width = 500;
}
);
unicode = 807;
},
{
glyphname = grave;
lastChange = "2021-12-21 19:21:44 +0000";
layers = (
{
layerId = m01;
shapes = (
{
closed = 1;
nodes = (
(254,580,l),
(319,580,l),
(258,712,l),
(163,712,l)
);
}
);
width = 505;
}
);
unicode = 96;
},
